<?xml version="1.0" standalone="no"?>
<!DOCTYPE svg PUBLIC "-//W3C//DTD SVG 20010904//EN"
 "http://www.w3.org/TR/2001/REC-SVG-20010904/DTD/svg10.dtd">
<svg version="1.0" xmlns="http://www.w3.org/2000/svg"
 width="1000.000000pt" height="654.000000pt" viewBox="0 0 1000.000000 654.000000"
 preserveAspectRatio="xMidYMid meet">

<g transform="translate(0.000000,654.000000) scale(0.100000,-0.100000)"
fill="#ffffff" stroke="none">
<path d="M6350 6483 c-533 -38 -1043 -225 -1600 -588 -941 -612 -1906 -1736
-2608 -3036 -87 -161 -271 -536 -330 -674 -107 -247 -185 -452 -259 -680 -25
-77 -49 -144 -54 -149 -5 -6 -9 24 -9 75 0 142 -19 655 -31 824 -19 289 -65
489 -130 568 -42 51 -108 81 -161 72 -174 -29 -267 -188 -553 -940 -92 -242
-174 -451 -181 -465 -16 -27 -14 154 7 800 15 469 21 1236 12 1463 -8 189 -10
210 -28 223 -45 33 -117 0 -135 -64 -7 -23 -14 -313 -20 -777 -5 -407 -12
-803 -15 -880 -3 -77 -6 -313 -6 -525 -1 -500 10 -567 94 -598 34 -13 40 -13
84 9 41 21 53 34 84 94 21 39 112 270 204 515 203 542 235 621 320 791 88 175
128 219 156 168 39 -73 69 -265 89 -575 12 -179 41 -1134 35 -1144 -2 -4 -5
-90 -7 -192 -2 -171 -1 -188 16 -207 26 -28 94 -29 129 -1 31 25 40 50 117
320 181 635 262 854 503 1355 717 1489 1748 2779 2764 3461 873 587 1691 731
2448 432 277 -109 521 -262 747 -469 97 -89 133 -104 167 -70 42 42 22 89 -74
179 -253 237 -610 459 -894 557 -286 98 -621 147 -881 128z"/>
<path d="M5670 4659 c-582 -33 -1160 -133 -1545 -267 -371 -128 -710 -345
-750 -479 -10 -36 34 -73 86 -73 38 0 47 6 117 76 152 154 423 300 757 407
267 86 594 148 1015 191 514 53 1154 45 1605 -20 641 -92 1063 -277 1236 -542
63 -95 90 -170 96 -263 10 -139 -36 -275 -145 -429 -75 -106 -360 -381 -339
-327 14 37 19 166 8 234 -29 189 -111 296 -275 355 -45 17 -74 37 -123 87 -36
36 -75 87 -88 113 -20 42 -22 57 -18 132 7 101 0 136 -26 136 -17 0 -91 -73
-91 -90 0 -4 -30 -10 -66 -14 -65 -7 -66 -6 -104 28 -112 101 -136 86 -109
-70 9 -54 8 -70 -6 -108 -27 -71 -9 -136 63 -224 30 -38 36 -54 42 -115 6 -59
18 -93 64 -187 l57 -115 -3 -142 -3 -141 -28 -23 c-23 -17 -28 -28 -25 -51 5
-34 34 -26 -272 -73 -209 -33 -684 -119 -875 -159 -38 -8 -72 -13 -74 -10 -2
2 34 84 82 182 127 263 209 443 304 671 86 209 110 290 99 335 -7 28 -51 56
-90 56 -49 0 -74 -38 -160 -245 -140 -336 -424 -942 -475 -1014 -11 -15 -36
-36 -56 -45 -19 -9 -151 -43 -292 -76 -679 -156 -1164 -302 -1411 -426 -204
-101 -272 -166 -272 -256 0 -63 36 -98 135 -130 63 -21 88 -23 247 -21 216 1
374 15 621 54 178 28 555 101 591 115 9 3 16 1 16 -5 0 -28 -353 -622 -680
-1146 -103 -165 -195 -314 -204 -332 -22 -43 -21 -96 2 -116 28 -25 94 -22
119 5 11 13 71 109 134 213 62 105 216 354 343 555 126 201 292 471 368 600
77 129 149 246 161 258 32 35 59 47 192 82 706 187 1452 478 1954 764 74 42
157 83 185 91 61 17 457 49 871 70 322 16 843 19 990 5 101 -9 135 2 135 44 0
30 -25 51 -75 65 -99 27 -1141 8 -1535 -29 -58 -5 -127 -9 -153 -10 l-48 0
154 153 c176 173 261 282 322 412 85 181 95 328 32 485 -184 455 -832 729
-1895 800 -176 12 -678 11 -892 -1z m1620 -2059 c-69 -55 -418 -211 -790 -355
-310 -119 -931 -317 -947 -301 -2 1 43 87 99 190 87 162 106 190 134 202 70
29 834 175 1309 249 116 18 212 33 215 34 3 0 -6 -8 -20 -19z m-1800 -348 c0
-53 -178 -365 -220 -387 -59 -31 -638 -148 -935 -189 -258 -36 -452 -42 -522
-15 -106 40 154 192 537 313 276 87 1052 291 1123 295 10 1 17 -6 17 -17z"/>
<path d="M9375 4529 c-60 -17 -206 -57 -323 -90 -117 -33 -217 -57 -223 -54
-5 4 -9 13 -9 21 0 11 -8 14 -27 12 -22 -2 -30 -10 -38 -36 -9 -31 -13 -33
-170 -83 -191 -61 -275 -100 -275 -129 0 -11 6 -20 13 -20 19 0 118 32 275 89
78 28 146 51 151 51 4 0 11 -43 15 -96 7 -90 6 -98 -14 -119 -19 -21 -25 -50
-46 -255 -46 -441 -65 -828 -45 -900 9 -32 59 -40 84 -13 19 21 39 97 61 225
35 200 41 313 41 751 l0 437 30 9 c254 79 412 125 510 151 145 37 165 45 165
65 0 23 -48 18 -175 -16z m-604 -986 c-1 -139 -25 -391 -38 -403 -3 -3 -3 58
0 135 6 161 29 427 35 420 2 -2 4 -71 3 -152z"/>
<path d="M8948 3773 c-11 -13 -18 -49 -23 -125 -6 -94 -5 -108 9 -114 35 -13
64 6 102 68 33 55 38 59 45 40 15 -39 52 -28 104 31 l46 52 31 -37 c25 -33 36
-38 70 -38 55 0 105 26 139 73 47 65 14 80 -50 22 -21 -19 -45 -35 -53 -35 -8
0 -29 18 -47 40 -38 48 -78 53 -131 16 -31 -21 -37 -22 -57 -9 -19 13 -26 12
-58 -3 -20 -9 -41 -26 -48 -38 -11 -19 -12 -17 -17 24 -4 36 -9 46 -26 48 -11
2 -27 -5 -36 -15z"/>
<path d="M3350 3533 c-35 -13 -53 -45 -131 -229 -65 -153 -87 -195 -103 -199
-12 -2 -77 -9 -146 -14 -69 -5 -137 -14 -152 -21 -39 -18 -46 -49 -17 -73 22
-18 34 -19 152 -12 78 4 127 3 127 -3 0 -5 -56 -163 -124 -350 -68 -187 -131
-365 -140 -394 -13 -46 -25 -62 -73 -101 -66 -54 -184 -117 -219 -117 -31 0
-31 21 1 105 14 36 36 94 50 130 l25 66 -25 24 c-49 50 -104 20 -157 -87 -104
-207 -112 -329 -26 -374 74 -38 241 3 342 85 21 17 42 31 45 31 4 0 13 -16 19
-35 44 -121 262 -143 440 -44 l52 29 22 -20 c28 -26 78 -26 112 1 15 11 45 49
68 82 91 136 272 323 376 388 l32 21 0 -25 c0 -14 -9 -69 -20 -122 -11 -53
-20 -112 -20 -130 0 -81 41 -125 117 -125 49 1 190 55 288 111 117 66 156 125
100 151 -22 10 -40 4 -151 -50 -69 -34 -136 -62 -150 -62 -29 0 -30 15 -9 110
41 185 0 280 -119 280 -59 0 -85 -11 -182 -76 -45 -30 -85 -54 -88 -54 -3 0
25 62 63 138 130 259 321 696 355 813 14 47 14 55 1 76 -18 27 -42 29 -91 8
-40 -16 -20 23 -252 -495 -82 -184 -196 -435 -252 -558 l-103 -223 -66 -55
c-126 -105 -286 -165 -334 -125 -34 28 -14 168 52 356 116 331 225 612 243
628 14 12 38 17 77 18 100 1 288 24 305 38 19 16 21 47 4 58 -7 4 -88 10 -179
13 l-167 5 52 145 c68 189 72 214 41 246 -24 24 -37 27 -65 17z"/>
<path d="M2639 2695 c-28 -15 -94 -136 -105 -191 -11 -57 41 -78 108 -43 51
27 116 167 99 212 -15 39 -56 47 -102 22z"/>
<path d="M7434 2278 c-125 -110 -206 -317 -160 -407 38 -73 177 -96 294 -48
40 16 59 20 55 11 -5 -13 -62 -32 -428 -144 -561 -173 -934 -352 -1001 -482
-18 -35 -20 -92 -5 -131 20 -51 108 -124 215 -177 128 -62 247 -97 391 -112
99 -10 124 -9 202 6 106 21 174 50 251 110 141 109 209 210 407 607 l114 227
48 17 c223 79 333 138 366 195 22 36 9 70 -27 70 -13 0 -73 -25 -133 -54 -111
-55 -163 -75 -163 -61 0 4 29 68 65 142 36 74 65 147 65 162 0 39 -28 61 -80
61 -40 0 -47 -4 -84 -47 -138 -161 -287 -284 -364 -299 -30 -6 -32 -5 -32 22
0 52 19 98 80 199 33 55 60 106 60 113 0 22 -39 52 -70 52 -19 0 -42 -11 -66
-32z m12 -805 c-118 -233 -177 -330 -254 -413 -111 -120 -222 -167 -372 -156
-114 8 -218 37 -317 86 -171 87 -200 139 -119 215 55 51 217 136 391 205 164
66 712 250 743 250 21 0 16 -13 -72 -187z"/>
</g>
</svg>
