<?xml version="1.0" standalone="no"?>
<!DOCTYPE svg PUBLIC "-//W3C//DTD SVG 20010904//EN"
 "http://www.w3.org/TR/2001/REC-SVG-20010904/DTD/svg10.dtd">
<svg version="1.0" xmlns="http://www.w3.org/2000/svg"
 width="1000.000000pt" height="667.000000pt" viewBox="0 0 1000.000000 667.000000"
 preserveAspectRatio="xMidYMid meet">

<g transform="translate(0.000000,667.000000) scale(0.100000,-0.100000)"
fill="#000000" stroke="none">
<path d="M6335 6548 c-226 -12 -514 -74 -760 -163 -792 -288 -1611 -932 -2371
-1865 -709 -870 -1308 -1928 -1626 -2875 -39 -115 -75 -214 -80 -219 -4 -6 -8
27 -8 75 0 141 -19 665 -30 824 -24 344 -82 548 -174 608 -92 61 -210 26 -300
-89 -94 -120 -157 -259 -376 -834 -87 -228 -166 -431 -175 -450 -15 -33 -15
-20 -10 215 3 138 11 412 18 610 15 473 15 1590 -1 1628 -24 58 -100 57 -138
-1 -23 -35 -33 -241 -34 -712 -1 -195 -7 -632 -13 -970 -13 -637 -9 -962 12
-1040 24 -85 84 -118 156 -85 73 35 76 42 327 710 192 512 329 821 384 864 27
21 28 21 45 4 42 -43 75 -236 99 -583 11 -169 41 -1120 35 -1130 -2 -4 -5 -93
-6 -199 -3 -183 -2 -193 18 -213 14 -13 35 -21 61 -22 50 -1 85 28 106 88 12
32 175 587 228 776 19 66 176 455 253 625 505 1116 1220 2170 2002 2951 460
460 894 780 1374 1013 285 139 487 205 779 258 202 36 501 38 694 5 348 -60
630 -173 921 -368 105 -70 155 -111 315 -251 76 -68 106 -77 140 -43 43 43 17
95 -98 197 -317 284 -674 488 -1018 582 -250 68 -484 93 -749 79z"/>
<path d="M5720 4729 c-558 -25 -1162 -125 -1570 -259 -155 -51 -424 -180 -550
-265 -162 -108 -246 -207 -219 -257 17 -32 28 -38 78 -38 41 0 48 5 125 79
253 245 705 430 1296 530 838 142 1813 130 2470 -30 252 -62 482 -158 647
-270 69 -47 172 -156 213 -224 159 -269 80 -549 -244 -862 -114 -111 -271
-235 -341 -270 -46 -24 -104 -34 -382 -68 -348 -42 -884 -132 -1290 -215 -53
-11 -98 -18 -101 -15 -3 2 36 89 86 192 132 274 213 453 302 669 105 254 119
315 80 354 -27 27 -110 28 -134 1 -9 -10 -54 -108 -100 -217 -113 -271 -187
-435 -331 -731 -135 -277 -152 -306 -197 -329 -16 -9 -138 -40 -269 -70 -350
-79 -719 -177 -1034 -274 -55 -17 -109 -33 -120 -36 -11 -3 27 20 85 50 99 52
170 110 170 138 -1 58 -54 52 -194 -21 -64 -34 -123 -61 -132 -61 -25 0 -27
27 -10 113 23 118 21 186 -7 228 -60 89 -157 78 -317 -34 -35 -25 -66 -44 -68
-42 -3 2 14 38 37 80 98 183 348 749 385 876 16 54 11 81 -20 93 -20 8 -88
-10 -102 -27 -6 -6 -61 -124 -122 -262 -171 -382 -409 -905 -435 -955 -47 -92
-261 -232 -358 -234 -69 -2 -81 15 -74 99 8 101 34 188 142 480 53 143 109
294 123 335 20 55 34 78 52 87 14 6 97 17 185 24 101 7 168 16 183 25 24 16
29 48 10 61 -7 4 -88 10 -179 13 l-167 5 52 145 c69 190 73 214 40 247 -30 30
-67 26 -99 -11 -12 -12 -54 -101 -94 -197 -41 -96 -81 -181 -90 -190 -12 -13
-49 -19 -151 -27 -74 -5 -147 -15 -162 -22 -39 -19 -46 -49 -17 -73 22 -18 34
-19 152 -12 80 4 127 3 127 -3 0 -5 -56 -162 -124 -348 -68 -187 -131 -365
-140 -396 -14 -50 -24 -64 -79 -108 -70 -58 -172 -110 -212 -110 -26 0 -27 2
-20 38 4 20 23 75 42 122 20 47 39 97 43 112 20 66 -70 96 -122 41 -54 -57
-125 -228 -134 -323 -6 -64 18 -113 62 -130 42 -16 131 -11 196 11 57 19 160
79 174 100 10 17 20 9 32 -26 44 -121 262 -143 439 -44 l53 29 20 -20 c13 -13
33 -20 56 -20 43 0 78 32 167 156 85 119 319 344 358 344 14 0 11 -35 -11
-139 -24 -112 -25 -150 -6 -196 20 -48 47 -59 125 -52 l66 6 -101 -43 c-261
-111 -384 -209 -384 -305 0 -67 35 -101 140 -137 47 -16 83 -19 245 -18 238 2
394 16 658 60 207 34 543 101 559 110 22 14 -1 -33 -111 -224 -158 -276 -306
-521 -551 -912 -112 -179 -209 -339 -217 -357 -18 -43 -17 -88 3 -107 16 -17
89 -22 111 -8 7 4 70 104 141 222 71 118 232 379 359 580 126 201 282 455 347
565 144 244 162 271 198 296 15 11 108 42 205 69 712 193 1435 477 1893 741
182 105 187 106 361 123 541 53 1363 80 1674 56 101 -8 124 -7 143 6 34 23 26
63 -18 89 -33 19 -54 20 -405 24 -392 3 -777 -10 -1140 -39 -121 -10 -221 -17
-223 -15 -1 1 71 76 161 166 90 90 188 198 216 239 141 202 193 381 157 549
-81 385 -506 669 -1203 805 -484 95 -942 123 -1563 95z m1565 -2065 c-86 -68
-682 -320 -1095 -464 -184 -64 -520 -166 -609 -185 l-34 -7 61 113 c114 214
137 252 164 272 19 14 116 38 335 83 398 80 1090 200 1173 203 25 0 25 0 5
-15z m-1795 -344 c0 -45 -175 -360 -213 -384 -45 -29 -648 -152 -927 -190
-268 -36 -431 -43 -510 -23 -55 15 -62 37 -23 75 35 35 176 113 286 158 102
41 405 136 637 200 172 46 713 181 738 183 6 1 12 -8 12 -19z"/>
<path d="M9355 4594 c-71 -19 -217 -60 -324 -90 -193 -55 -210 -56 -211 -21 0
5 -12 7 -27 5 -22 -2 -30 -10 -37 -35 -10 -32 -14 -34 -170 -84 -192 -61 -276
-101 -276 -129 0 -11 6 -20 13 -20 19 0 118 32 275 89 78 28 146 51 151 51 4
0 11 -43 15 -96 7 -90 6 -98 -14 -119 -19 -21 -25 -50 -46 -255 -46 -442 -65
-828 -45 -900 6 -20 13 -25 41 -25 43 0 63 32 85 135 51 243 68 500 63 946
l-3 345 85 25 c47 14 128 39 180 56 52 16 168 49 258 73 178 48 182 50 182 71
0 22 -51 16 -195 -22z m-584 -975 c-1 -138 -24 -396 -37 -408 -4 -3 -4 57 -1
134 6 154 29 427 34 421 3 -2 4 -68 4 -147z"/>
<path d="M8948 3843 c-11 -13 -18 -49 -23 -125 -6 -94 -5 -108 9 -114 35 -13
66 6 97 61 36 64 45 72 52 45 10 -38 51 -25 102 33 l46 52 31 -37 c25 -33 36
-38 70 -38 55 0 105 26 139 73 47 65 7 82 -51 22 -19 -19 -41 -35 -50 -35 -9
0 -31 18 -49 40 -38 48 -79 53 -133 17 -30 -21 -36 -22 -55 -10 -19 13 -26 12
-58 -3 -19 -9 -41 -26 -48 -38 -11 -19 -12 -17 -17 24 -4 36 -9 46 -26 48 -11
2 -27 -5 -36 -15z"/>
<path d="M2620 2741 c-36 -38 -90 -152 -90 -191 0 -26 35 -43 75 -36 54 10
115 94 139 189 5 21 1 33 -18 52 -35 35 -63 31 -106 -14z"/>
<path d="M7405 2317 c-106 -108 -167 -274 -134 -363 29 -79 170 -110 291 -64
53 20 76 20 39 1 -11 -6 -163 -56 -338 -111 -337 -105 -460 -148 -638 -224
-233 -100 -392 -202 -430 -277 -18 -34 -19 -106 -2 -135 58 -101 198 -186 412
-252 115 -35 347 -42 453 -14 95 26 170 71 258 157 97 94 171 212 324 517
l130 256 47 17 c226 80 340 144 374 206 14 26 -6 59 -35 59 -13 0 -73 -24
-133 -54 -119 -60 -163 -75 -163 -57 0 6 29 70 65 141 36 71 65 143 65 158 0
40 -28 62 -80 62 -40 0 -47 -4 -84 -47 -139 -162 -287 -284 -365 -299 l-34 -7
6 51 c6 53 36 121 92 206 46 71 50 91 26 115 -39 39 -78 28 -146 -42z m31
-792 c-121 -237 -177 -326 -261 -410 -110 -113 -209 -152 -355 -141 -114 9
-213 36 -314 85 -111 56 -166 103 -166 143 0 106 342 267 1035 488 83 27 154
46 158 43 4 -2 -39 -96 -97 -208z"/>
</g>
</svg>
